<svg width="296" height="62" viewBox="0 0 296 62" fill="none" xmlns="http://www.w3.org/2000/svg">
<path d="M18.8235 9.76H51.8475V0.351995H14.3115C9.6395 0.351995 6.0875 1.12 3.6555 2.656C1.2235 4.192 0.00750017 6.528 0.00750017 9.664V52H18.8235V37.696H33.0315V52H51.8475V14.464H33.0315V28.288H18.8235V9.76ZM60.4763 18.976H93.5003V42.592H79.2923V23.68H60.4763V61.312H79.2923V52H98.0123C102.684 52 106.236 51.232 108.668 49.696C111.1 48.16 112.316 45.824 112.316 42.688V18.88C112.316 15.744 111.1 13.408 108.668 11.872C106.236 10.336 102.684 9.568 98.0123 9.568H60.4763V18.976ZM120.945 18.976H153.969V42.592H139.761V23.68H120.945V61.312H139.761V52H158.481C163.153 52 166.705 51.232 169.137 49.696C171.569 48.16 172.785 45.824 172.785 42.688V18.88C172.785 15.744 171.569 13.408 169.137 11.872C166.705 10.336 163.153 9.568 158.481 9.568H120.945V18.976ZM181.414 9.76H214.438V28.288H200.23V14.464H181.414V52H200.23V37.696H218.95C223.622 37.696 227.174 36.928 229.606 35.392C232.038 33.856 233.254 31.52 233.254 28.384V9.664C233.254 6.528 232.038 4.192 229.606 2.656C227.174 1.12 223.622 0.351995 218.95 0.351995H181.414V9.76ZM241.883 0.351995V9.76H248.123L259.259 26.56V52H278.075V26.464L295.451 0.351995H276.539L268.667 12.448L260.795 0.351995H241.883Z" fill="white"/>
<path d="M18.8235 9.76V8.76H17.8235V9.76H18.8235ZM51.8475 9.76V10.76H52.8475V9.76H51.8475ZM51.8475 0.351995H52.8475V-0.648005H51.8475V0.351995ZM3.6555 2.656L4.18949 3.50149L4.18949 3.50149L3.6555 2.656ZM0.00750017 52H-0.9925V53H0.00750017V52ZM18.8235 52V53H19.8235V52H18.8235ZM18.8235 37.696V36.696H17.8235V37.696H18.8235ZM33.0315 37.696H34.0315V36.696H33.0315V37.696ZM33.0315 52H32.0315V53H33.0315V52ZM51.8475 52V53H52.8475V52H51.8475ZM51.8475 14.464H52.8475V13.464H51.8475V14.464ZM33.0315 14.464V13.464H32.0315V14.464H33.0315ZM33.0315 28.288V29.288H34.0315V28.288H33.0315ZM18.8235 28.288H17.8235V29.288H18.8235V28.288ZM18.8235 10.76H51.8475V8.76H18.8235V10.76ZM52.8475 9.76V0.351995H50.8475V9.76H52.8475ZM51.8475 -0.648005H14.3115V1.352H51.8475V-0.648005ZM14.3115 -0.648005C9.55711 -0.648005 5.78433 0.128722 3.12151 1.81051L4.18949 3.50149C6.39067 2.11127 9.72189 1.352 14.3115 1.352V-0.648005ZM3.12151 1.81051C0.369451 3.54865 -0.9925 6.22188 -0.9925 9.664H1.0075C1.0075 6.83412 2.07755 4.83535 4.18949 3.50149L3.12151 1.81051ZM-0.9925 9.664V52H1.0075V9.664H-0.9925ZM0.00750017 53H18.8235V51H0.00750017V53ZM19.8235 52V37.696H17.8235V52H19.8235ZM18.8235 38.696H33.0315V36.696H18.8235V38.696ZM32.0315 37.696V52H34.0315V37.696H32.0315ZM33.0315 53H51.8475V51H33.0315V53ZM52.8475 52V14.464H50.8475V52H52.8475ZM51.8475 13.464H33.0315V15.464H51.8475V13.464ZM32.0315 14.464V28.288H34.0315V14.464H32.0315ZM33.0315 27.288H18.8235V29.288H33.0315V27.288ZM19.8235 28.288V9.76H17.8235V28.288H19.8235ZM60.4763 18.976H59.4763V19.976H60.4763V18.976ZM93.5003 18.976H94.5003V17.976H93.5003V18.976ZM93.5003 42.592V43.592H94.5003V42.592H93.5003ZM79.2923 42.592H78.2923V43.592H79.2923V42.592ZM79.2923 23.68H80.2923V22.68H79.2923V23.68ZM60.4763 23.68V22.68H59.4763V23.68H60.4763ZM60.4763 61.312H59.4763V62.312H60.4763V61.312ZM79.2923 61.312V62.312H80.2923V61.312H79.2923ZM79.2923 52V51H78.2923V52H79.2923ZM108.668 49.696L109.202 50.5415L109.202 50.5415L108.668 49.696ZM108.668 11.872L109.202 11.0265L109.202 11.0265L108.668 11.872ZM60.4763 9.568V8.568H59.4763V9.568H60.4763ZM60.4763 19.976H93.5003V17.976H60.4763V19.976ZM92.5003 18.976V42.592H94.5003V18.976H92.5003ZM93.5003 41.592H79.2923V43.592H93.5003V41.592ZM80.2923 42.592V23.68H78.2923V42.592H80.2923ZM79.2923 22.68H60.4763V24.68H79.2923V22.68ZM59.4763 23.68V61.312H61.4763V23.68H59.4763ZM60.4763 62.312H79.2923V60.312H60.4763V62.312ZM80.2923 61.312V52H78.2923V61.312H80.2923ZM79.2923 53H98.0123V51H79.2923V53ZM98.0123 53C102.767 53 106.539 52.2233 109.202 50.5415L108.134 48.8505C105.933 50.2407 102.602 51 98.0123 51V53ZM109.202 50.5415C111.954 48.8033 113.316 46.1301 113.316 42.688H111.316C111.316 45.5179 110.246 47.5167 108.134 48.8505L109.202 50.5415ZM113.316 42.688V18.88H111.316V42.688H113.316ZM113.316 18.88C113.316 15.4379 111.954 12.7647 109.202 11.0265L108.134 12.7175C110.246 14.0513 111.316 16.0501 111.316 18.88H113.316ZM109.202 11.0265C106.539 9.34472 102.767 8.568 98.0123 8.568V10.568C102.602 10.568 105.933 11.3273 108.134 12.7175L109.202 11.0265ZM98.0123 8.568H60.4763V10.568H98.0123V8.568ZM59.4763 9.568V18.976H61.4763V9.568H59.4763ZM120.945 18.976H119.945V19.976H120.945V18.976ZM153.969 18.976H154.969V17.976H153.969V18.976ZM153.969 42.592V43.592H154.969V42.592H153.969ZM139.761 42.592H138.761V43.592H139.761V42.592ZM139.761 23.68H140.761V22.68H139.761V23.68ZM120.945 23.68V22.68H119.945V23.68H120.945ZM120.945 61.312H119.945V62.312H120.945V61.312ZM139.761 61.312V62.312H140.761V61.312H139.761ZM139.761 52V51H138.761V52H139.761ZM169.137 49.696L169.671 50.5415L169.671 50.5415L169.137 49.696ZM169.137 11.872L169.671 11.0265L169.671 11.0265L169.137 11.872ZM120.945 9.568V8.568H119.945V9.568H120.945ZM120.945 19.976H153.969V17.976H120.945V19.976ZM152.969 18.976V42.592H154.969V18.976H152.969ZM153.969 41.592H139.761V43.592H153.969V41.592ZM140.761 42.592V23.68H138.761V42.592H140.761ZM139.761 22.68H120.945V24.68H139.761V22.68ZM119.945 23.68V61.312H121.945V23.68H119.945ZM120.945 62.312H139.761V60.312H120.945V62.312ZM140.761 61.312V52H138.761V61.312H140.761ZM139.761 53H158.481V51H139.761V53ZM158.481 53C163.235 53 167.008 52.2233 169.671 50.5415L168.603 48.8505C166.402 50.2407 163.071 51 158.481 51V53ZM169.671 50.5415C172.423 48.8033 173.785 46.1301 173.785 42.688H171.785C171.785 45.5179 170.715 47.5167 168.603 48.8505L169.671 50.5415ZM173.785 42.688V18.88H171.785V42.688H173.785ZM173.785 18.88C173.785 15.4379 172.423 12.7647 169.671 11.0265L168.603 12.7175C170.715 14.0513 171.785 16.0501 171.785 18.88H173.785ZM169.671 11.0265C167.008 9.34472 163.235 8.568 158.481 8.568V10.568C163.071 10.568 166.402 11.3273 168.603 12.7175L169.671 11.0265ZM158.481 8.568H120.945V10.568H158.481V8.568ZM119.945 9.568V18.976H121.945V9.568H119.945ZM181.414 9.76H180.414V10.76H181.414V9.76ZM214.438 9.76H215.438V8.76H214.438V9.76ZM214.438 28.288V29.288H215.438V28.288H214.438ZM200.23 28.288H199.23V29.288H200.23V28.288ZM200.23 14.464H201.23V13.464H200.23V14.464ZM181.414 14.464V13.464H180.414V14.464H181.414ZM181.414 52H180.414V53H181.414V52ZM200.23 52V53H201.23V52H200.23ZM200.23 37.696V36.696H199.23V37.696H200.23ZM229.606 35.392L230.14 36.2375L230.14 36.2375L229.606 35.392ZM229.606 2.656L229.072 3.50149L229.072 3.50149L229.606 2.656ZM181.414 0.351995V-0.648005H180.414V0.351995H181.414ZM181.414 10.76H214.438V8.76H181.414V10.76ZM213.438 9.76V28.288H215.438V9.76H213.438ZM214.438 27.288H200.23V29.288H214.438V27.288ZM201.23 28.288V14.464H199.23V28.288H201.23ZM200.23 13.464H181.414V15.464H200.23V13.464ZM180.414 14.464V52H182.414V14.464H180.414ZM181.414 53H200.23V51H181.414V53ZM201.23 52V37.696H199.23V52H201.23ZM200.23 38.696H218.95V36.696H200.23V38.696ZM218.95 38.696C223.704 38.696 227.477 37.9193 230.14 36.2375L229.072 34.5465C226.871 35.9367 223.539 36.696 218.95 36.696V38.696ZM230.14 36.2375C232.892 34.4993 234.254 31.8261 234.254 28.384H232.254C232.254 31.2139 231.184 33.2127 229.072 34.5465L230.14 36.2375ZM234.254 28.384V9.664H232.254V28.384H234.254ZM234.254 9.664C234.254 6.22188 232.892 3.54865 230.14 1.81051L229.072 3.50149C231.184 4.83535 232.254 6.83412 232.254 9.664H234.254ZM230.14 1.81051C227.477 0.128722 223.704 -0.648005 218.95 -0.648005V1.352C223.539 1.352 226.871 2.11127 229.072 3.50149L230.14 1.81051ZM218.95 -0.648005H181.414V1.352H218.95V-0.648005ZM180.414 0.351995V9.76H182.414V0.351995H180.414ZM241.883 0.351995V-0.648005H240.883V0.351995H241.883ZM241.883 9.76H240.883V10.76H241.883V9.76ZM248.123 9.76L248.956 9.2075L248.659 8.76H248.123V9.76ZM259.259 26.56H260.259V26.2587L260.092 26.0075L259.259 26.56ZM259.259 52H258.259V53H259.259V52ZM278.075 52V53H279.075V52H278.075ZM278.075 26.464L277.242 25.91L277.075 26.1617V26.464H278.075ZM295.451 0.351995L296.283 0.905989L297.317 -0.648005H295.451V0.351995ZM276.539 0.351995V-0.648005H275.996L275.7 -0.19346L276.539 0.351995ZM268.667 12.448L267.828 12.9935L268.666 14.2813L269.505 12.9935L268.667 12.448ZM260.795 0.351995L261.633 -0.19346L261.337 -0.648005H260.795V0.351995ZM240.883 0.351995V9.76H242.883V0.351995H240.883ZM241.883 10.76H248.123V8.76H241.883V10.76ZM247.289 10.3125L258.425 27.1125L260.092 26.0075L248.956 9.2075L247.289 10.3125ZM258.259 26.56V52H260.259V26.56H258.259ZM259.259 53H278.075V51H259.259V53ZM279.075 52V26.464H277.075V52H279.075ZM278.907 27.018L296.283 0.905989L294.618 -0.201998L277.242 25.91L278.907 27.018ZM295.451 -0.648005H276.539V1.352H295.451V-0.648005ZM275.7 -0.19346L267.828 11.9025L269.505 12.9935L277.377 0.897451L275.7 -0.19346ZM269.505 11.9025L261.633 -0.19346L259.956 0.897451L267.828 12.9935L269.505 11.9025ZM260.795 -0.648005H241.883V1.352H260.795V-0.648005Z" fill="black"/>
</svg>
